<?xml version="1.0" encoding="UTF-8"?>
<svg id="Layer_1" xmlns="http://www.w3.org/2000/svg" width="400" height="200" viewBox="0 0 400 200">
  <path d="M-.27,55.61c.5.01,1,.04,1.5.04,132.5,0,265.01,0,397.51,0h1.53v86.29h-101.91v-8.59h93.22v-68.95H8.54v68.94h93.19v8.67c-.39,0-.72,0-1.04,0-33.45,0-66.9,0-100.35,0-.2,0-.4-.01-.6-.02V55.61Z"/>
  <path d="M125.73,144.39c-.06-.25-.16-.51-.16-.76,0-3.96,0-7.92,0-11.88,0-.16.03-.32.06-.59,1.33,0,2.62-.04,3.91.03.29.01.61.34.84.6,1.73,1.97,3.45,3.96,5.32,6.12v-6.68h4.36c0,.34,0,.67,0,.99,0,3.69,0,7.39,0,11.08,0,.36-.06.72-.1,1.09h-4.01c-1.95-2.2-3.9-4.4-6.01-6.79v6.79h-4.21Z"/>
  <path d="M212.87,144.39c-.03-.7-.09-1.39-.1-2.09,0-3.66,0-7.32,0-11.13,1.39,0,2.71-.03,4.02.03.26.01.54.35.75.59,1.73,1.97,3.45,3.96,5.34,6.14v-6.7h4.17c.04.07.1.13.1.18-.02,4.33-.04,8.65-.06,12.98h-4.01c-1.95-2.22-3.9-4.43-6.01-6.83v6.83h-4.21Z"/>
  <path d="M258.34,144.39v-13.21c1.39,0,2.74-.03,4.09.03.23,0,.47.33.66.54,1.75,2,3.48,4,5.41,6.22v-6.74h4.27v13.17h-4.21c-1.88-2.19-3.76-4.39-5.63-6.58-.21,1.36-.19,2.59-.21,3.82-.02.92-.1,1.84-.16,2.76h-4.21Z"/>
  <path d="M113.31,144.39v-13.15h10.73v3.72h-6.27v1.07h6.26v3.33h-6.24c-.03.37-.05.64-.09,1.03h6.45c-.08,1.41-.15,2.71-.23,4.01h-10.62Z"/>
  <path d="M155.18,144.39v-13.16h10.65v3.74h-6.27c-.02.36-.04.64-.06,1.02h6.32v3.42h-6.27c-.02.34-.03.59-.05.99h6.3v4h-10.62Z"/>
  <path d="M246.12,144.39v-13.16h10.65v3.73h-6.19v1.05h6.18v3.34h-6.21c-.02.39-.03.66-.05,1.06h6.23v3.98h-10.62Z"/>
  <path d="M191.84,144.39c1.01-3.54,2.01-7.09,3.04-10.63.75-2.6.76-2.6,3.44-2.6,1.2,0,2.4-.04,3.6.03.29.02.74.31.82.57,1.2,3.98,2.36,7.97,3.51,11.96.06.21,0,.45.01.68h-4.21c-.07-.11-.16-.22-.21-.34-.23-.61-.29-1.49-.73-1.77-.51-.32-1.35-.12-2.05-.12q-2.02,0-2.66,1.87c-.04.12-.11.24-.16.36h-4.41ZM198.06,138.26h2.08c-.34-1.19-.64-2.26-1.03-3.62-.4,1.37-.72,2.47-1.05,3.62Z"/>
  <path d="M140.87,106.98v11.04h-31.36v-37.45c-.07-.01-.14-.03-.21-.04-.12.32-.27.64-.36.96-3.44,11.78-6.89,23.55-10.29,35.34-.29,1.01-.71,1.33-1.77,1.32-5.97-.06-11.95-.04-17.93-.01-.78,0-1.08-.25-1.29-.99-3.44-11.88-6.92-23.75-10.39-35.62-.09-.3-.19-.6-.53-.88,0,.37,0,.75,0,1.12,0,11.7-.01,23.39.02,35.09,0,1.01-.25,1.3-1.27,1.28-3.44-.07-6.88-.05-10.31,0-.8,0-1.1-.17-1.1-1.04.03-12.13.02-24.26,0-36.39,0-.78.22-1.03,1.02-1.02,7.91.03,15.82.03,23.73,0,.83,0,1.15.27,1.38,1.03,2.48,8.42,4.99,16.83,7.49,25.24.09.31.22.6.44,1.18.64-2.09,1.19-3.91,1.74-5.73,2.08-6.94,4.16-13.89,6.21-20.84.19-.66.47-.88,1.17-.88,14.22.02,28.44.02,42.66.02.29,0,.59.04.94.06v11h-18.68v3.25h18.66v9.74h-18.65v3.25h18.68Z"/>
  <path d="M240.68,118.05c-.36.02-.65.06-.94.06-3.71,0-7.41-.02-11.12.02-.74,0-1.07-.23-1.25-.93-.38-1.51-.86-3-1.25-4.52-.16-.63-.41-.93-1.14-.92-3.7.04-7.41.03-11.12,0-.62,0-.95.14-1.12.81-.39,1.58-.9,3.13-1.32,4.7-.16.61-.45.84-1.1.84-7.91-.02-15.82,0-23.73-.05-.47,0-1.07-.35-1.4-.72-5.32-6.02-10.6-12.07-15.9-18.11-.24-.27-.48-.54-.9-.99v19.79h-12.55v-38.29c.36-.02.71-.05,1.07-.05,3.34,0,6.68.02,10.01-.02.79-.01,1.29.26,1.78.84,5.28,6.14,10.59,12.26,15.89,18.39.24.27.49.53.92,1.01v-20.12h12.47v37.36c.07.02.14.03.21.05.14-.38.3-.76.42-1.15,3.42-11.68,6.85-23.35,10.23-35.04.29-.99.65-1.36,1.75-1.35,6.01.07,12.02.04,18.03.01.7,0,1,.22,1.18.87,3.6,12.35,7.21,24.7,10.82,37.05.03.09.02.2.04.45ZM219.54,89.76l-.26.04c-1.04,3.67-2.08,7.35-3.15,11.1h6.58c-1.08-3.79-2.13-7.46-3.18-11.14Z"/>
  <path d="M344.84,98.52v19.52h-12.5v-38.29c.36-.02.71-.05,1.07-.05,3.3,0,6.61.03,9.91-.02.86-.01,1.41.26,1.96.9,5.19,6.05,10.4,12.06,15.61,18.09.31.36.64.71.95,1.07.08-.04.17-.07.25-.11v-19.87h12.36v38.3c-.36.02-.71.05-1.07.05-3.37,0-6.74-.02-10.11.02-.71,0-1.16-.24-1.62-.76-5.25-6.03-10.53-12.05-15.8-18.06-.26-.29-.53-.58-.79-.87-.07.03-.15.06-.22.09Z"/>
  <path d="M330.69,99.49c.23,10.93-8.42,18.31-18.32,19.12-5.25.43-10.28-.19-14.82-3.02-6.9-4.3-9.61-10.69-9.02-18.62.52-6.88,3.88-12,9.89-15.33,4.12-2.28,8.63-2.83,13.27-2.5,3.93.28,7.61,1.35,10.86,3.63,5.59,3.93,8.17,9.4,8.12,16.73ZM309.6,106.89c2.22.02,4.22-.58,5.86-2.13,3.2-3.03,3.22-8.63.04-11.68-3.23-3.1-9.35-2.93-12.21.39-2.3,2.67-2.57,5.76-1.25,8.88,1.37,3.25,4.14,4.52,7.55,4.54Z"/>
  <path d="M234.58,90.86v-11.12c.38-.02.7-.05,1.03-.05,11.81,0,23.63,0,35.44-.02.96,0,1.17.3,1.15,1.19-.05,2.96-.05,5.93,0,8.89.01.89-.2,1.21-1.15,1.19-3.37-.06-6.74-.02-10.11-.02-.36,0-.72,0-1.18,0v27.11h-12.65v-1.33c0-8.16,0-16.32,0-24.49q0-1.29-1.31-1.29c-3.37,0-6.74,0-10.11,0-.36,0-.72-.03-1.1-.05Z"/>
  <path d="M24.6,79.76c.33-.03.63-.07.92-.07,3.54,0,7.07.02,10.61-.02.85-.01.99.32.98,1.06-.02,8.23-.01,16.45-.01,24.68,0,.43,0,.86,0,1.48.44,0,.82,0,1.2,0,4.27,0,8.54.02,12.81-.02.79,0,1.04.22,1.03,1.01-.04,3.06-.04,6.13,0,9.19,0,.74-.14,1.06-.99,1.05-8.54-.03-17.08-.02-25.62-.02-.29,0-.58-.04-.92-.07v-38.28Z"/>
  <path d="M274.23,118.01v-38.24c.3-.03.59-.08.87-.08,3.6,0,7.21.02,10.81-.02.82,0,1,.28,1,1.04-.02,12.13-.01,24.25-.01,36.38,0,.56.06,1.04-.79,1.04-3.8-.03-7.61-.02-11.41-.02-.13,0-.26-.05-.47-.09Z"/>
  <path d="M236.63,138.98c.61-2.13,1.15-3.97,1.67-5.82q.57-2,2.69-2c1.13,0,2.26,0,3.46,0v12.99h-3.93v-6.01c-.08-.01-.16-.03-.24-.04-.41,1.42-.81,2.84-1.22,4.26q-.53,1.86-2.5,1.86t-2.36-1.76c-.42-1.46-.84-2.91-1.47-4.34v6.05h-3.94v-13c1.76,0,3.52-.03,5.27.04.2,0,.49.47.57.77.66,2.23,1.28,4.47,1.99,7.01Z"/>
  <path d="M180.09,144.22c-1.69,0-3.19.03-4.67-.03-.28-.01-.61-.34-.82-.61-.95-1.2-1.87-2.42-2.94-3.83v4.39h-4.2v-12.92c.28-.02.56-.06.85-.06,2.1,0,4.2,0,6.3,0,2.61.01,4.59,1.32,5.28,3.47.73,2.27-.04,4.28-2.23,5.87-.05.04-.09.1-.19.21.82,1.09,1.64,2.2,2.62,3.51ZM171.65,134.8v2.88c1.04,0,2.01.04,2.97-.01.84-.05,1.33-.58,1.38-1.43.04-.76-.63-1.41-1.47-1.43-.93-.03-1.86,0-2.87,0Z"/>
  <path d="M282.59,144.19h-4.36v-9.15h-4.3v-3.82h12.78v3.73h-4.13v9.24Z"/>
  <path d="M141.19,135.02v-3.8h12.75v3.75h-4.16v9.19h-4.36v-9.14h-4.23Z"/>
  <path d="M193.23,131.24v3.72h-4.16v9.2h-4.35v-9.11h-4.23v-3.81h12.74Z"/>
  <path d="M207.16,131.22c.23-.02.39-.06.55-.06,1.13,0,2.26,0,3.47,0v13h-4.03v-12.94Z"/>
  <path d="M383.09,87.42c-2.3,0-3.99-1.67-3.97-3.95.01-2.23,1.69-3.88,3.94-3.89,2.26,0,4.03,1.74,4,3.95-.03,2.19-1.75,3.88-3.97,3.89ZM383.06,80.02c-1.87.01-3.53,1.69-3.49,3.53.04,1.83,1.67,3.44,3.48,3.45,1.87.01,3.52-1.62,3.52-3.49,0-1.88-1.63-3.5-3.51-3.49Z"/>
  <path d="M384.52,85.49c-.27-.27-.54-.54-.81-.81-.28-.28-.56-.56-.84-.84-.14.32-.26.65-.42.96-.1.2-.26.37-.39.56-.11-.2-.31-.4-.32-.6-.04-.86-.06-1.74.01-2.6.02-.24.37-.61.6-.64.52-.06,1.07-.01,1.58.11.72.17,1.12.92.66,1.46-.61.71-.32,1.23.02,1.84.06.11.09.24.13.35l-.23.21ZM382.29,82.95c.15.17.29.33.44.5.41-.25.82-.49,1.22-.74-.31-.22-.66-.66-.92-.62-.29.06-.5.55-.74.85Z"/>
</svg>