<?xml version="1.0" encoding="UTF-8"?>
<svg id="Layer_1" xmlns="http://www.w3.org/2000/svg" width="400" height="200" viewBox="0 0 400 200">
  <path d="M49.47,141.23c-.93-.34-1.84-.74-2.79-1.01-5.24-1.51-10.48-3-16.14-4.61,6.64-4.21,12.97-8.23,19.54-12.4v6.59c9.25-.81,20.55-15.74,21.46-27.79,1.31-17.27-10.21-31.99-26.22-35.41-16.47-3.52-32.73,5.41-38.54,20.95-6.01,16.1,1.36,35.18,19.03,42.56-1.51.92-2.84,1.82-4.26,2.55-.37.19-1.09-.06-1.54-.31-11.2-6.31-17.75-15.82-19.67-28.5-.07-.49-.22-.97-.34-1.46,0-2.25,0-4.5,0-6.75.31-1.59.55-3.2.94-4.77,3.5-14.22,12.29-23.58,26.19-28.16,1.27-.42,1.74-.9,1.61-2.2-.12-1.22-.03-2.45-.03-3.92,1.23.38,2.28.71,3.33,1.03,5.23,1.55,10.42,3.25,15.7,4.61,15.58,4.01,27.46,18.13,28.52,33.56,1.23,17.86-9.38,33.03-24.51,38.64-1.32.49-1.72,1.12-1.63,2.43.11,1.45.02,2.92.01,4.39h-.68Z"/>
  <path d="M262.56,72.36v4.63h-33.5v7.19h33.48v16.74h-38.28v-4.62h33.47v-7.29h-33.45v-16.65h38.28Z"/>
  <path d="M132.63,72.38h38.34v28.5h-38.34v-28.5ZM137.36,96.13h28.83v-19h-28.83v19Z"/>
  <path d="M315.93,72.38h38.33v28.49h-38.33v-28.49ZM320.6,96.17h28.81v-19.01h-28.81v19.01Z"/>
  <path d="M366.47,100.95h-4.77v-28.55h38.3v21.32h-33.53v7.22ZM366.34,77.11c0,3.44.07,6.8-.03,10.16-.04,1.45.46,1.78,1.83,1.77,8.47-.06,16.93-.03,25.4-.03.55,0,1.1-.05,1.71-.08v-11.82h-28.91Z"/>
  <path d="M86.86,72.35h38.28v28.57h-4.65v-23.78h-28.96v23.76h-4.67v-28.55Z"/>
  <path d="M183.12,100.91h-4.71v-28.52h38.32v28.53h-4.62v-23.8h-29v23.79Z"/>
  <path d="M308.38,72.4v4.63h-16.72v23.88h-4.79v-23.88h-16.81v-4.63h38.32Z"/>
  <path d="M241.36,127.3h-3.11v-12.96c-.12-.02-.24-.03-.37-.05-.67,2.93-1.34,5.85-2.02,8.78-.11.49-.22.99-.33,1.48q-.68,3.05-4.08,2.68c-.93-4.22-1.88-8.48-2.82-12.74-.09,0-.17,0-.26,0v12.73h-3.26v-16.8c1.43,0,2.88-.07,4.31.05.36.03.85.64.95,1.07.83,3.32,1.58,6.67,2.36,10.01.13.54.28,1.07.68,1.62.78-3.36,1.56-6.73,2.33-10.09q.61-2.67,3.28-2.67c.73,0,1.46,0,2.32,0v16.87Z"/>
  <path d="M113.46,110.53h3.24v16.57c-2.97.74-3.25.62-4.69-1.89-1.51-2.63-3.02-5.27-4.54-7.9-.26-.46-.57-.89-1.2-1.26v11.24h-3.17v-16.61c3.07-.7,3.41-.56,4.86,1.97,1.72,3.01,3.44,6.02,5.52,8.96v-11.07Z"/>
  <path d="M210.55,115.62v11.63h-3.1c0-5.51,0-11.04,0-16.56,2.91-.75,3.4-.55,4.82,1.93,1.73,3.02,3.45,6.03,5.49,9v-11.06h3.26v16.58c-3.15.62-3.22.59-4.78-2.11-1.71-2.97-3.42-5.94-5.13-8.91-.05-.09-.16-.14-.56-.49Z"/>
  <path d="M163.9,119.22c3.21,2.04.86,5.55,2.6,8.04h-4c-.08-1.35-.2-2.68-.22-4-.02-1.64-.75-2.54-2.43-2.55-1.28-.01-2.56,0-4.03,0v6.56h-3.31v-16.61c3.42,0,6.89-.19,10.33.08,1.87.14,2.97,1.7,3.31,3.6.36,2.04-.32,3.63-2.24,4.9ZM155.9,117.81c1.71,0,3.33.09,4.94-.03,1.23-.09,1.87-.9,1.85-2.19-.01-1.26-.6-2.11-1.85-2.2-1.61-.12-3.23-.03-4.95-.03v4.44Z"/>
  <path d="M275.49,110.56v16.54c-2.74.72-3.27.52-4.58-1.77-1.81-3.16-3.63-6.31-5.78-9.42v11.34h-3.25v-16.53c2.86-.81,3.45-.58,4.86,1.88,1.71,2.97,3.42,5.94,5.13,8.91.02.04.1.05.38.16v-11.11h3.23Z"/>
  <path d="M136.03,110.5h12.26v2.89h-8.85v3.52h8.14v3.01h-8.15v4.4h9.26v2.94h-12.66v-16.76Z"/>
  <path d="M86.8,127.22v-16.69h12.28v2.86h-8.88v3.49h8.07v3.03h-8.05v4.4h9.22v2.9h-12.66Z"/>
  <path d="M245.61,110.5h12.27v2.86h-8.8v3.53h8.01v2.95h-7.96v4.49h9.21v2.92h-12.74v-16.76Z"/>
  <path d="M197.29,127.28h-3.91c.04-4.55-3.32-3.31-5.96-3.42-2.49-.1-1.48,2.39-2.79,3.42h-3.4c1.65-4.64,3.26-9.18,4.87-13.71.06-.16.13-.31.19-.47,1.05-2.94,1.05-2.97,4.15-2.65.4.04,1,.37,1.12.7,1.93,5.32,3.8,10.66,5.72,16.12ZM189.43,114.65c-.12,0-.23,0-.35,0-.65,2.05-1.31,4.09-1.98,6.19h4.26c-.68-2.17-1.31-4.18-1.94-6.18Z"/>
  <path d="M173.26,113.39h-5.1v-2.83h13.67v2.78h-4.97v13.92h-3.61v-13.87Z"/>
  <path d="M124.58,113.38h-5.2v-2.82h13.63v2.77h-4.93v13.91h-3.5v-13.86Z"/>
  <path d="M283.31,113.38h-5.09v-2.83h13.61v2.8h-4.98v13.9h-3.54v-13.87Z"/>
  <path d="M200.06,110.51h3.33v16.75h-3.33v-16.75Z"/>
  <path d="M46.28,70.91c-5.69,3.31-11.12,6.47-16.73,9.73-.14-1.67-.27-3.11-.39-4.55-7.86,1.63-15.42,11.86-15.9,21.56-.32,6.44,1.63,12.21,5.77,17.18,4.14,4.97,9.55,7.76,16.34,8.83-1.8,1.11-3.22,2.08-4.73,2.86-.45.23-1.2.05-1.76-.13-12.67-4.02-20.75-16.04-20.04-29.75.64-12.42,10.4-23.67,22.83-26.32,5.08-1.08,10.39-.9,14.61.58Z"/>
</svg>