<?xml version="1.0" encoding="UTF-8"?>
<svg id="Layer_1" xmlns="http://www.w3.org/2000/svg" width="400" height="200" viewBox="0 0 400 200">
  <path d="M0,39.07c3.27.05,6.53.13,9.8.14,31.01.06,62.01.07,93.02.16,11,.03,19.8,7.47,21.79,18.28.22,1.17.26,2.39.26,3.59.1,25.92.18,51.84.3,77.76.02,3.86-.41,7.62-2.05,11.15-3.42,7.34-9.26,11.39-17.23,12.45-1.22.16-2.47.2-3.7.2-26.53.01-53.07,0-79.6,0-10.91,0-20.03-7.78-21.67-18.59-.32-2.1-.44-4.24-.45-6.36-.12-28.26-.21-56.51-.31-84.77C.15,52.53.05,51.99,0,51.45v-12.38ZM30.29,79.42c0-10.62-.01-21.24.02-31.86,0-1.02-.28-1.35-1.34-1.34-6.57.05-13.14.02-19.72.02-1.45,0-1.46,0-1.45,1.48.06,15.12.16,30.25.17,45.37,0,3.08.78,5.87,2.51,8.34,4.54,6.51,10.8,10.21,18.71,11.07.72.08,1.14-.1,1.08-.92-.03-.44,0-.89,0-1.34,0-10.28,0-20.55,0-30.83ZM56.58,82.08c0,4.3,0,8.59,0,12.89,0,1.42,0,1.42,1.46,1.31,3.1-.23,6.01-1.13,8.73-2.61,3.96-2.15,7.01-5.23,8.95-9.27,3.13-6.56,4.3-13.47,2.27-20.54-2.86-9.96-12.29-16.86-23.57-17.36-6.53-.29-13.07-.17-19.6-.27-.94-.01-1.24.25-1.23,1.21.04,6.43.05,12.85,0,19.28,0,1.07.33,1.32,1.35,1.31,6.81-.04,13.62,0,20.43-.04.94,0,1.24.25,1.23,1.21-.05,4.29-.02,8.59-.02,12.89ZM33.61,97.65c0,4.57.02,9.14-.02,13.71,0,.9.26,1.18,1.17,1.18,5.75-.04,11.49-.04,17.24,0,.94,0,1.15-.34,1.15-1.21-.03-9.11-.03-18.21,0-27.32,0-.96-.3-1.24-1.23-1.23-5.71.03-11.42.04-17.13,0-.99,0-1.2.36-1.19,1.26.04,4.54.02,9.07.02,13.61ZM43.48,71.2c-2.96,0-5.91.02-8.87-.01-.76,0-1.03.23-1.01,1,.04,2.16.04,4.33,0,6.49-.01.75.23,1.04,1,1.04,5.84-.02,11.69-.02,17.53,0,.75,0,1.03-.25,1.02-1.02-.04-2.13-.05-4.26,0-6.38.02-.85-.25-1.13-1.11-1.12-2.85.04-5.7.02-8.56.02Z"/>
  <path d="M278.16,36.8c.11.45.31.91.31,1.36.02,9.82.01,19.65.01,29.47,0,.57.13,1.26-.72,1.34-.79.08-1.67.23-1.7-1.15-.51.17-.92.28-1.31.44-2.1.88-4.27,1.26-6.55.97-3.68-.47-6.41-2.34-7.86-5.72-2-4.64-1.73-9.23,1.2-13.42,2.79-3.98,8.51-5.25,12.85-3.04.33.17.66.34,1.17.59.06-.5.13-.85.13-1.19,0-2.78-.01-5.57.02-8.35,0-.44.25-.88.39-1.32.69,0,1.38,0,2.07,0ZM275.69,57.71c0-2.16-.02-4.33,0-6.49.01-1.05-.44-1.76-1.32-2.27-4.17-2.4-10.05-.31-11.71,4.19-.9,2.45-.99,4.97-.47,7.51,1.38,6.66,6.92,7.54,11.22,6.33,1.71-.48,2.27-1.32,2.27-3.09,0-2.06,0-4.12,0-6.18Z"/>
  <path d="M164.72,152.67v10.53h-2.71c-.03-.41-.08-.81-.08-1.21,0-9.73,0-19.45,0-29.18,0-.54-.25-1.3.6-1.42.68-.1,1.57-.42,1.76.78,0,.06.73.15,1.01,0,2.2-1.12,4.54-1.39,6.93-1.06,4.5.62,7.66,3.55,8.63,7.99.88,4.02.32,7.81-2.16,11.18-2.82,3.84-7.87,5.08-12.2,3.1-.51-.23-1.05-.42-1.78-.72ZM164.73,142.54h0c0,2.2.01,4.39,0,6.59,0,1.12.52,1.88,1.47,2.41,3.82,2.12,9.08.55,11.03-3.33,1.31-2.62,1.52-5.41.99-8.24-1.16-6.28-6.18-8-11.19-6.66-1.74.47-2.29,1.28-2.3,3.05,0,2.06,0,4.12,0,6.18Z"/>
  <path d="M343.96,100.32c-.18,1.39-.27,2.81-.56,4.18-1.05,4.94-4.14,7.5-9.18,7.7-5.6.22-9.24-2.68-10.25-8.19-.49-2.67-.48-5.34.15-7.98,1.21-5.05,4.56-7.62,9.75-7.51,5.77.12,9.32,3.57,9.89,9.62.07.72.08,1.44.12,2.16.03,0,.06.01.09.02ZM326.09,100.22c.46,2.02.71,4.02,1.39,5.86,1.05,2.86,3.37,4.26,6.32,4.23,3.08-.04,5.26-1.45,6.34-4.37,1.42-3.82,1.39-7.7-.14-11.48-1.06-2.64-3.12-4-6.02-4.04-2.98-.04-5.3,1.14-6.4,3.93-.73,1.85-1,3.88-1.49,5.87Z"/>
  <path d="M387.56,110.37c-1.95.49-3.76,1.06-5.6,1.37-1.86.31-3.71-.01-5.43-.84-3.54-1.72-4.31-6.49-1.31-9.03,1.3-1.1,2.97-1.83,4.56-2.52,1.86-.81,3.81-1.4,5.72-2.08,1.49-.53,1.73-.87,1.73-2.4,0-3.05-1.21-4.32-4.26-4.46-2.41-.12-4.62.48-6.71,1.66-.35.2-.84.17-1.26.24.06-.64.06-1.29.21-1.91.05-.22.47-.39.75-.5,3.15-1.14,6.36-1.78,9.71-1.12,2.59.51,4.25,2.33,4.29,4.94.09,5.6.04,11.2.05,16.8,0,.58-.24.95-.84.93-.56-.02-1.31.31-1.49-.64-.03-.16-.1-.31-.14-.44ZM387.2,98.79c-3.07,1.19-6.23,1.8-8.98,3.51-.2.13-.39.29-.57.45-1.21,1.07-1.66,2.43-1.36,3.99.29,1.53,1.35,2.46,2.8,2.86,2.26.62,4.52.44,6.64-.5.62-.27,1.37-1.1,1.4-1.71.15-2.8.07-5.61.07-8.6Z"/>
  <path d="M238.22,57.13c.02,2.21.07,4.26,1.04,6.16,1.61,3.14,4.38,4.19,7.71,4.14,1.76-.03,3.37-.56,4.91-1.4.38-.21.88-.17,1.33-.25-.07.62-.08,1.25-.24,1.84-.06.24-.43.45-.71.56-3.99,1.52-7.97,1.82-11.85-.33-2.31-1.29-3.74-3.33-4.42-5.85-1.15-4.25-.79-8.33,1.78-12.02,2.45-3.52,7.05-4.85,11.13-3.32,3.82,1.43,6.24,5.43,5.84,9.61-.08.83-.58.89-1.21.89-4.68,0-9.36,0-14.04,0-.4,0-.8,0-1.27,0ZM251.86,55.13c.16-4.27-2.71-7.27-6.73-7.17-3.73.09-7.08,3.61-6.78,7.17h13.51Z"/>
  <path d="M288.46,110.23c-.82.29-1.62.57-2.42.85-2.54.9-5.11,1.04-7.69.16-2.16-.74-3.56-2.18-3.88-4.5-.31-2.33.49-4.25,2.47-5.5,1.26-.8,2.66-1.43,4.06-1.99,1.85-.75,3.75-1.36,5.63-2.04,1.33-.48,1.6-.87,1.61-2.28.03-3.11-1.2-4.39-4.29-4.53-2.37-.11-4.55.47-6.62,1.62-.38.21-1.02.4-1.32.22-.46-.27-.19-1.64.35-2,.43-.28.9-.51,1.39-.66,2.92-.86,5.89-1.45,8.94-.82,2.62.54,4.24,2.4,4.27,5.07.06,5.53.02,11.06.04,16.6,0,.61-.19,1.03-.86,1.01-.6-.02-1.4.29-1.47-.77,0-.12-.11-.23-.22-.45ZM288.24,98.6c-3.15,1.28-6.05,2.46-8.96,3.65-.15.06-.28.2-.41.3-1.34,1.09-1.92,2.49-1.58,4.19.33,1.64,1.48,2.54,3.01,2.91,2.16.52,4.3.32,6.37-.49,1.06-.41,1.59-1.23,1.58-2.41-.02-1.96,0-3.91,0-5.87,0-.64,0-1.28,0-2.29Z"/>
  <path d="M276.75,142.03c.37,2,.49,3.87,1.07,5.58.93,2.75,3.11,4.19,5.94,4.63,2.43.38,4.71-.09,6.86-1.28.38-.21.9-.19,1.35-.28-.07.62-.07,1.25-.23,1.85-.06.23-.43.45-.71.55-4.33,1.62-8.61,1.89-12.61-.85-2.58-1.76-3.76-4.42-4.1-7.44-.49-4.32.29-8.32,3.62-11.43,2.78-2.61,7.24-3.13,10.69-1.37,3.28,1.67,5.22,5.36,4.88,9.19-.08.86-.59.85-1.22.85-4.68,0-9.35,0-14.03,0-.37,0-.75,0-1.52,0ZM290.72,140.07c-.14-2.53-.8-4.77-3-6.16-2.32-1.47-4.8-1.43-7.14-.04-2.29,1.36-3.29,3.55-3.57,6.2h13.71Z"/>
  <path d="M213.65,99.57c-.46,6.06,2.15,9.3,6.24,10.14,2.56.53,4.98.09,7.27-1.2.39-.22.9-.23,1.35-.33-.1.67-.15,1.36-.34,2-.07.23-.46.41-.74.51-3.79,1.38-7.58,1.7-11.3-.18-2.01-1.01-3.47-2.61-4.3-4.69-1.7-4.22-1.55-8.41.65-12.42,2.23-4.07,6.8-5.83,11.24-4.47,4.12,1.26,6.65,5.16,6.36,9.74-.05.85-.54.9-1.18.9-4.68,0-9.36,0-14.04,0h-1.2ZM227.21,97.61c.16-4.27-2.72-7.27-6.79-7.19-3.65.07-7.02,3.64-6.74,7.19h13.52Z"/>
  <path d="M253.65,89.98c1.42-.43,2.77-1.05,4.16-1.2,1.72-.19,3.52-.22,5.21.09,3.17.57,5.02,2.77,5.45,6.05.11.85.16,1.71.17,2.57.02,4.23.01,8.46,0,12.68,0,1.19-.14,1.3-1.42,1.3-1.25,0-1.37-.11-1.38-1.34,0-4.23.02-8.46-.01-12.68,0-1.02-.07-2.07-.29-3.07-.45-2.07-1.76-3.38-3.88-3.79-1.93-.37-3.84-.24-5.69.44-1.54.56-2.02,1.3-2.03,2.95,0,5.36,0,10.72-.02,16.09,0,.43-.17,1.16-.4,1.22-.63.18-1.35.15-2,.02-.18-.04-.35-.69-.35-1.07-.02-6.74-.01-13.47-.02-20.21,0-.59.04-1.14.81-1.17.67-.02,1.44-.15,1.51.89,0,.06.07.11.15.22Z"/>
  <path d="M178.98,57.72c0,3.33,0,6.67,0,10,0,.55.1,1.22-.69,1.25-.64.03-1.51.41-1.72-.75-.02-.12-.66-.26-.96-.19-1.84.4-3.65.95-5.51,1.24-1.03.16-2.14.05-3.17-.15-3.37-.65-5.31-2.82-5.39-6.31-.12-5.15-.04-10.31-.06-15.46,0-1.07.75-.97,1.43-.99.76-.02,1.31.12,1.3,1.12-.04,4.47-.02,8.93-.01,13.4,0,.55,0,1.1.08,1.64.41,3,2.16,4.71,5.2,4.83,1.39.06,2.83-.07,4.18-.37,1.88-.42,2.53-1.41,2.54-3.33,0-5.29,0-10.58.02-15.87,0-.43.16-1.17.39-1.23.63-.17,1.35-.13,2,0,.19.04.36.68.36,1.05.03,3.37.02,6.73.02,10.1Z"/>
  <path d="M253.33,142.65c0,3.3,0,6.6,0,9.9,0,.57.14,1.29-.72,1.34-.64.04-1.51.39-1.69-.77-.02-.12-.67-.25-.98-.18-1.88.4-3.72.96-5.61,1.26-1.02.16-2.14.02-3.17-.19-3.34-.7-5.2-2.79-5.27-6.19-.11-5.19-.04-10.38-.05-15.57,0-1.02.73-.92,1.37-.93.71-.01,1.37-.02,1.36,1.04-.03,4.37-.01,8.73-.01,13.1,0,.45,0,.89.01,1.34.16,3.43,2.1,5.43,5.53,5.53,1.29.04,2.62-.1,3.88-.39,1.87-.43,2.55-1.42,2.55-3.33,0-5.29,0-10.59.02-15.88,0-.43.18-1.17.4-1.22.67-.14,1.41-.08,2.1.05.16.03.28.65.28,1,.02,3.37.01,6.74.01,10.11Z"/>
  <path d="M189.07,47.63c.56-.22,1.01-.37,1.44-.56,2.41-1.02,4.92-1.3,7.48-.81,3.58.68,5.78,2.88,5.94,6.52.22,5.11.13,10.23.15,15.35,0,1.09-.86.84-1.51.88-.75.05-1.26-.13-1.25-1.06.03-3.06.01-6.11,0-9.17,0-1.65.04-3.3-.03-4.95-.16-4-2.24-5.97-6.25-5.85-1.19.04-2.4.26-3.54.6-1.63.48-2.13,1.29-2.13,2.97,0,5.36,0,10.72-.02,16.08,0,.42-.18,1.15-.42,1.21-.63.16-1.34.08-2.01-.01-.14-.02-.29-.51-.29-.79-.02-6.91,0-13.81-.02-20.72,0-.59.22-.95.82-.93.53.02,1.23-.28,1.43.58.04.16.1.32.2.64Z"/>
  <path d="M352.48,90.16c.59-.23.93-.36,1.26-.51,2.53-1.09,5.16-1.44,7.87-.91,3.55.69,5.6,2.86,5.89,6.46.2,2.43.14,4.88.16,7.31.02,2.58-.03,5.16.02,7.73.02,1.09-.54,1.22-1.42,1.24-.9.01-1.41-.17-1.4-1.24.04-4.3.04-8.59,0-12.89,0-1.02-.1-2.07-.33-3.06-.47-2.03-1.78-3.29-3.85-3.7-1.97-.39-3.91-.25-5.79.46-1.49.56-1.98,1.32-1.99,2.89,0,5.4,0,10.79,0,16.19,0,1.24-.11,1.33-1.36,1.34-1.29,0-1.37-.06-1.37-1.32,0-6.63,0-13.27,0-19.9,0-.6-.17-1.34.77-1.38.77-.04,1.64-.17,1.51,1.29Z"/>
  <path d="M172.33,100.13c0-3.33,0-6.66,0-10,0-.55-.07-1.21.71-1.24.62-.03,1.43-.33,1.63.74.02.11.7.25.96.14,2.18-1,4.45-1.38,6.83-1.22,4.46.3,7.13,2.81,7.28,7.25.17,4.91.06,9.82.08,14.73,0,1.18-.89.87-1.56.93-.8.07-1.2-.2-1.19-1.09.03-4.29.02-8.59,0-12.88,0-.86-.06-1.72-.19-2.56-.39-2.51-1.86-4.03-4.36-4.41-1.79-.28-3.57-.14-5.29.48-1.6.58-2.11,1.32-2.11,3,0,5.36,0,10.72-.02,16.07,0,.43-.17,1.16-.41,1.22-.63.17-1.35.13-2,0-.19-.04-.34-.69-.35-1.07-.03-3.37-.02-6.73-.02-10.1Z"/>
  <path d="M220.8,133.26c-.84,0-1.55-.02-2.26,0-.72.03-.97-.35-.98-1.01-.01-.66.32-.93.95-.93.72,0,1.43,0,2.3,0,0-1.77-.03-3.44.02-5.11.01-.43.17-1.17.4-1.23.63-.16,1.35-.1,2.01.02.17.03.32.63.33.97.03,1.72.01,3.43.01,5.34.6,0,1.13,0,1.66,0,1.58,0,3.17.02,4.75,0,.73,0,.97.35.97,1.02,0,.66-.33.92-.96.92-1.72,0-3.44,0-5.16,0-.37,0-.74,0-1.19,0-.03.43-.06.76-.06,1.09,0,4.61,0,9.21,0,13.82,0,.31,0,.62.03.93.17,2.16,1.42,3.34,3.59,3.24.84-.04,1.67-.37,2.51-.51.38-.06.79.04,1.18.07-.11.51-.18,1.03-.36,1.51-.06.17-.38.28-.61.35-1.91.59-3.86.76-5.79.13-2.13-.7-3.3-2.55-3.31-5.18-.03-4.74,0-9.49-.01-14.23,0-.37,0-.74,0-1.21Z"/>
  <path d="M200.69,88.89c2.19,0,4.24,0,6.3,0,.58,0,1.01.1,1.06.81.05.8-.28,1.11-1.08,1.1-2.03-.03-4.06,0-6.22,0-.02.42-.06.78-.06,1.14,0,4.57,0,9.14,0,13.71,0,.41,0,.83.05,1.23.25,2.07,1.59,3.2,3.68,3.02.81-.07,1.6-.38,2.41-.52.36-.07.75,0,1.12,0-.09.51-.11,1.04-.28,1.53-.07.2-.43.33-.68.41-1.8.58-3.64.74-5.48.22-1.86-.53-2.97-1.81-3.38-3.66-.16-.73-.21-1.5-.21-2.25-.02-4.61,0-9.21-.01-13.82,0-.3-.04-.6-.07-1.01-.67,0-1.28-.01-1.89,0-.66.02-1.24.01-1.26-.92-.02-1,.61-.99,1.3-.98.58,0,1.16,0,1.92,0,0-1.09,0-2.1,0-3.12,0-.65,0-1.31,0-1.96,0-1.29,1.24-2.02,2.37-1.33.26.16.39.69.4,1.06.04,1.71.02,3.43.02,5.34Z"/>
  <path d="M225.35,46.4c2.15,0,4.17-.03,6.19.03.39.01.96.29,1.1.6.34.75-.07,1.25-.92,1.26-2.06.02-4.12,0-6.31,0-.03.43-.07.79-.07,1.15,0,4.54,0,9.08,0,13.61,0,.38,0,.76.04,1.13.2,2.23,1.45,3.35,3.7,3.21.81-.05,1.6-.37,2.41-.5.36-.06.75.01,1.13.03-.07.49-.06,1.01-.25,1.44-.11.25-.54.43-.85.52-1.74.52-3.51.68-5.29.2-1.78-.48-2.92-1.65-3.37-3.42-.2-.79-.27-1.63-.27-2.45-.02-4.54-.01-9.08-.01-13.61,0-.37,0-.74,0-1.3-.82,0-1.56-.01-2.3,0-.65.02-.93-.27-.94-.93,0-.65.27-.97.91-.96.75,0,1.49,0,2.33,0,0-1.86.05-3.58-.02-5.29-.05-1.12.56-1.19,1.42-1.2.91-.01,1.43.17,1.39,1.24-.07,1.68-.02,3.36-.02,5.24Z"/>
  <path d="M301.9,88.89c2.15,0,4.2,0,6.26,0,.48,0,.98-.04,1.09.64.13.84-.14,1.23-1.01,1.24-2.06.02-4.12,0-6.26,0-.03.38-.07.67-.07.97,0,4.71,0,9.41,0,14.12,0,.34,0,.69.05,1.03.29,2.07,1.63,3.18,3.71,2.99.81-.07,1.6-.38,2.41-.53.36-.06.74,0,1.1.02-.05.46,0,.96-.18,1.37-.11.26-.51.46-.82.56-1.8.58-3.64.75-5.48.2-2.23-.66-3.49-2.4-3.52-5-.05-4.77-.02-9.55-.03-14.32,0-.41,0-.81,0-1.4-.72,0-1.36-.02-1.99,0-.75.04-1.29-.08-1.27-1.02.02-.96.68-.87,1.3-.87.61,0,1.22,0,1.95,0,0-1.8-.03-3.47.02-5.14.01-.43.17-1.17.39-1.23.63-.16,1.35-.1,2,.03.17.03.32.63.33.97.03,1.75.01,3.49.01,5.37Z"/>
  <path d="M196.55,142.94c.06-3.61.91-6.91,3.69-9.41,2.81-2.53,6.22-2.87,9.78-2.39,1.05.14,2.08.45,3.1.75.38.11.88.35,1,.66.21.56.17,1.21.23,1.82-.44-.06-.92-.01-1.3-.19-2.19-1.06-4.47-1.56-6.9-1.14-2.81.48-4.78,2.05-5.86,4.65-1.28,3.07-1.36,6.23-.27,9.37,1.05,3.04,3.27,4.75,6.46,5.19,2.31.32,4.51-.09,6.65-.98.38-.16.84-.11,1.27-.15-.12.63-.17,1.29-.38,1.89-.07.22-.49.36-.78.45-3.47,1.06-6.98,1.39-10.42.01-4.06-1.62-5.8-4.93-6.2-9.1-.05-.48-.05-.96-.07-1.43Z"/>
  <path d="M305.06,130.86c1.24.27,2.48.5,3.71.82.42.11.96.32,1.13.65.27.53.27,1.19.39,1.8-.46-.05-.97.02-1.36-.17-1.78-.88-3.6-1.36-5.58-.85-1.38.35-2.33,1.16-2.6,2.61-.26,1.41.16,2.59,1.36,3.42,1.84,1.27,3.7,2.5,5.55,3.75,1.75,1.19,3.04,2.66,3.13,4.92.11,3.01-1.43,5.27-4.32,6.13-2.63.78-5.17.42-7.62-.75-.32-.15-.74-.43-.81-.72-.11-.47.04-.99.07-1.49.41.08.88.06,1.23.25,1.66.86,3.38,1.36,5.27,1.04,1.57-.27,2.83-.97,3.25-2.61.44-1.68,0-3.16-1.45-4.2-1.83-1.33-3.72-2.59-5.57-3.91-1.49-1.07-2.46-2.46-2.5-4.39-.06-3.4,1.99-5.72,5.42-6.09.41-.04.82-.05,1.24-.07l.03-.13Z"/>
  <path d="M400,95.49c0,4.88,0,9.76,0,14.64,0,1.26-.07,1.32-1.36,1.33-1.31,0-1.41-.07-1.41-1.28,0-9.87,0-19.73,0-29.6,0-1.21.09-1.28,1.41-1.28,1.27,0,1.35.08,1.35,1.33,0,4.95,0,9.9,0,14.85Z"/>
  <path d="M235.85,100.13c0-3.33,0-6.66,0-10,0-.61-.03-1.24.83-1.23.68,0,1.49-.26,1.5.95,0,.77.57.48.97.29,1.9-.92,3.92-1.23,6.01-1.23,1.16,0,1.32.26,1.33,1.53,0,1.07-.59,1.17-1.41,1.05-.92-.13-1.83-.33-2.75-.38-2.57-.13-3.64.85-3.66,3.41-.03,5.15,0,10.3-.01,15.46,0,1.35-1.11,2.05-2.32,1.39-.28-.15-.44-.74-.45-1.13-.03-3.37-.02-6.73-.02-10.1Z"/>
  <path d="M263.45,133.02c2.25-1.21,4.52-1.65,6.89-1.67.87-.01,1.25.34,1.23,1.23-.02,1.35-.21,1.55-1.59,1.37-.99-.12-1.97-.36-2.96-.37-2.3-.02-3.27.97-3.28,3.26-.02,4.12,0,8.25,0,12.37,0,1.24-.03,2.47,0,3.71.03,1.06-.67,1-1.39,1-.71,0-1.39.08-1.39-.99.02-6.87.01-13.74,0-20.61,0-.71.29-1.01.98-.99.6.02,1.31-.15,1.32.83,0,.22.1.45.2.85Z"/>
  <path d="M187.55,142.53c0-3.3,0-6.59,0-9.89,0-1.21.11-1.31,1.39-1.31,1.28,0,1.4.11,1.4,1.3,0,6.66,0,13.33,0,19.99,0,1.21-.11,1.3-1.4,1.3-1.3,0-1.39-.08-1.4-1.3,0-3.37,0-6.73,0-10.1Z"/>
  <path d="M161.93,100.12c0-3.33.04-6.66-.02-9.99-.02-1.06.44-1.29,1.36-1.26,1.33.04,1.45.1,1.45,1.25,0,6.69,0,13.39,0,20.08,0,1.16-.13,1.21-1.45,1.27-.94.04-1.38-.22-1.36-1.26.05-3.36.02-6.73.02-10.09Z"/>
  <path d="M317.39,100.13c0,3.33,0,6.67,0,10,0,1.25-.09,1.32-1.37,1.33-1.32,0-1.41-.07-1.41-1.29,0-6.67,0-13.34,0-20.01,0-1.19.11-1.24,1.42-1.28.91-.03,1.4.17,1.38,1.24-.06,3.33-.02,6.67-.02,10Z"/>
  <path d="M211.26,57.63c0-3.29,0-6.59,0-9.88,0-1.25.1-1.34,1.35-1.35,1.3,0,1.41.08,1.41,1.28,0,6.69,0,13.38,0,20.08,0,1.18-.08,1.19-1.44,1.24-.97.04-1.35-.26-1.33-1.28.05-3.36.02-6.73.02-10.09Z"/>
  <path d="M317.83,81.92c.01,1.34-.54,1.94-1.79,1.97-1.34.03-1.89-.54-1.89-1.94,0-1.24.59-1.84,1.8-1.86,1.33-.03,1.87.5,1.88,1.84Z"/>
  <path d="M187.11,124.39c.01-1.3.61-1.87,1.92-1.85,1.25.01,1.77.57,1.76,1.88,0,1.32-.58,1.91-1.88,1.91-1.3,0-1.82-.55-1.8-1.94Z"/>
  <path d="M212.72,37.62c1.26,0,1.77.56,1.77,1.87,0,1.35-.56,1.92-1.86,1.91-1.34,0-1.81-.5-1.8-1.92,0-1.32.57-1.88,1.89-1.87Z"/>
  <path d="M161.49,81.95c0-1.3.61-1.89,1.91-1.86,1.26.02,1.77.57,1.76,1.89,0,1.31-.59,1.91-1.88,1.92-1.3,0-1.81-.54-1.8-1.94Z"/>
</svg>