<?xml version="1.0" encoding="UTF-8"?>
<svg id="Layer_1" xmlns="http://www.w3.org/2000/svg" width="400" height="200" viewBox="0 0 400 200">
  <path d="M247.19,169.36c-1.71-.46-5.25-.53-7.01-.14-3.08.68-5.66,2.07-7.77,4.18-2.45,2.46-3.92,5.34-4.44,8.72-.28,1.81-.28,2.88,0,4.71.47,3.11,1.84,5.91,4.05,8.25,2.08,2.2,4.23,3.53,7.17,4.42,1.26.38,1.56.41,4.09.42,3.23,0,4.35-.23,6.82-1.42,5.21-2.53,8.52-7.51,8.81-13.27.38-7.41-4.42-13.9-11.73-15.86ZM253.47,187.65c-.55,1.64-1.35,2.97-2.53,4.18-1.13,1.16-2.23,1.9-3.64,2.46-1.45.58-2.31.73-4.01.73-1.86,0-2.91-.26-4.74-1.16-1.12-.55-1.65-.93-2.58-1.86-1.34-1.34-2.14-2.62-2.71-4.35-.35-1.06-.4-1.45-.4-3.18s.05-2.12.4-3.18c1.14-3.45,3.71-5.93,7.23-6.99,1.55-.47,4.01-.49,5.59-.05,3.55.99,6.25,3.55,7.41,7.04.35,1.06.4,1.46.4,3.18s-.05,2.12-.4,3.18Z"/>
  <path d="M275.32,57.91c-3.42-13.5-10.29-25.56-20.2-35.47-12.38-12.38-27.82-19.86-45.55-22.07-2.01-.25-3.57-.32-7.96-.36-3-.02-5.76-.02-6.14.01-11.27.96-20.44,3.52-29.78,8.3-15.09,7.73-26.95,19.88-34.34,35.17-3.87,8.01-6.16,16.07-7.23,25.47-.38,3.32-.37,12.23,0,15.69,2.34,21.29,12.68,39.9,29.46,53,1.95,1.52,6.64,4.68,8.76,5.89,26.21,15.03,58.81,13.36,83.29-4.26,5.79-4.17,11.46-9.65,15.99-15.45,6.91-8.85,12.12-20.1,14.39-31.08,1.11-5.36,1.46-8.66,1.55-14.62.12-7.76-.49-13.28-2.26-20.23ZM130.08,82.94c-.22-.5-.2-11.09.03-13.06,1.11-9.61,3.33-17.16,7.38-25.16,3.42-6.75,7.43-12.27,12.96-17.83,3.02-3.03,5.27-5,8.29-7.22,11.49-8.46,25.32-13.24,39.76-13.73,1.85-.06,5.67.04,7.96.22,8.64.68,16.99,2.93,24.85,6.71l2.57,1.23-2.57.09c-2.85.1-4.84.4-7.12,1.08-3.73,1.11-9.1,3.57-13.32,6.1-3.58,2.15-5.34,3.43-11.16,8.08-4.8,3.84-10.8,10.5-15.5,17.19-1.96,2.8-1.22,1.54-11.1,18.61-9.37,16.19-10.67,18.38-12.92,21.8-4.1,6.24-6.71,8.89-10.73,10.89-2.06,1.03-3.8,1.43-6.21,1.44-3.95.02-6.5-1.23-7.7-3.78-.46-.97-.48-1.09-.48-2.91,0-1.74.05-2.01.5-3.33,1-2.89,3.39-6.8,7.68-12.58,1.27-1.71,2.42-3.33,2.56-3.59.37-.73.32-1.74-.09-2.12-.48-.44-.95-.55-1.56-.35-.36.12-2.68,2.16-7.23,6.36-6.12,5.64-6.72,6.16-6.85,5.86ZM194.26,103.96v43.45l-.8-.09c-6.57-.76-11.82-1.99-17.47-4.09-8.17-3.04-15.49-7.44-22.18-13.3-1.83-1.6-5.64-5.49-7.17-7.31-4.87-5.79-8.85-12.39-11.61-19.25-1.31-3.25-1.29-3.16-.33-2.29,2.01,1.81,5.2,2.66,9.2,2.47,10.18-.49,19.58-6.32,28.73-17.81,5.25-6.59,8.65-11.26,11.27-15.48,3.37-5.42,5.39-8.73,6.65-10.85.74-1.26,1.36-2.25,1.38-2.2.02.05.11.39.2.76.13.52.4.89,1.14,1.61l.97.93v43.45ZM192.59,55.91c0-.21,6.67-11.38,8.27-13.85,1.24-1.92,3.56-4.99,5.77-7.64,3.62-4.34,7.94-8.15,13.03-11.49,3.94-2.59,6.68-3.86,9.62-4.48,1.78-.37,4.13-.41,5.38-.09,1.33.34,2.4,1.11,2.9,2.08.53,1.04.66,3,.29,4.57-.5,2.15-2.27,4.96-4.86,7.73-1.88,2.01-2.17,2.62-1.68,3.57.35.67,1.08.81,1.92.38.25-.13,3.81-2.89,7.9-6.13l7.43-5.9.9.78c.49.43,1.64,1.57,2.54,2.53,6.2,6.63,10.63,13.32,13.93,21.04.96,2.24,2.25,5.71,2.39,6.43l.09.44-37.91.04c-20.85.02-37.91.03-37.91,0ZM271.41,82.46c-1.42,16.98-8.56,32.42-20.54,44.41-11.34,11.34-25.76,18.35-41.75,20.3-1.04.13-1.98.23-2.08.23-.16,0-.19-5.86-.16-30.95l.04-30.95.91-.73c1.15-.93,3.55-2.12,5.27-2.61,1.98-.57,4.25-.77,6.22-.56,3.32.35,10.65,2.49,17.23,5.03,3.35,1.29,6.83,2.42,9.17,2.97,1.71.4,2.03.43,5.23.43,3.87,0,5.21-.18,7.88-1.07,2.48-.83,4.56-2.09,5.08-3.09.28-.54.07-1.24-.45-1.51-.41-.22-.76-.18-2.89.32-1.29.3-1.9.35-4.17.35-2.29,0-2.92-.06-4.62-.42-2.47-.52-5.89-1.66-10.08-3.36-6.42-2.6-7.69-3.09-9.85-3.76-2.33-.72-5-1.36-6.74-1.61-1.58-.23-4.95-.19-6.59.07-2.89.46-7.38,1.83-10.22,3.1-.57.25-1.12.46-1.24.46-.18,0-.21-1.4-.21-9.22,0-5.07.05-9.27.1-9.32.06-.06,14.22-.08,31.48-.06l31.38.04.35,1.67c.44,2.12,1.04,6.27,1.27,8.71.23,2.46.23,8.44,0,11.14Z"/>
  <path d="M270.3,181.42c-2.07-1.99-3.9-3.84-4.08-4.13-.68-1.1-.28-2.44.92-3.04,1.44-.73,2.95-.49,4.25.68l.78.7,1.86-1.48c1.02-.81,1.89-1.51,1.93-1.55.04-.04-.44-.55-1.07-1.15-1.22-1.15-2.55-1.93-3.93-2.3-1-.27-3.11-.27-4.2,0-3.35.81-5.81,3.72-5.8,6.86,0,1.32.2,2.15.8,3.38.52,1.07,1.59,2.2,7.27,7.68,3.11,3,3.59,3.64,3.6,4.74.01,1.85-2.44,3.56-4.71,3.29-1.19-.14-2.61-.88-3.56-1.85-.58-.6-.88-.81-1.01-.71-.1.08-.95.74-1.89,1.47-.94.73-1.71,1.37-1.71,1.43s.31.45.68.88c1.39,1.58,3.62,2.95,5.68,3.47.74.19,1.43.23,2.8.18,1.59-.06,1.98-.13,3.04-.55,4.39-1.73,6.63-6.09,5.17-10.11-.73-2.01-.94-2.26-6.81-7.89Z"/>
  <polygon points="219.57 168.93 219.57 184.46 219.57 200 222.07 200 224.57 200 224.57 184.46 224.57 168.93 222.07 168.93 219.57 168.93"/>
  <path d="M184.71,168.93v10.73c0,11.77.02,11.54-.91,12.95-1.14,1.72-3.85,2.67-6.73,2.36-2.4-.26-4.03-1.28-4.94-3.08l-.53-1.06-.04-10.95-.04-10.95h-5.01l.06,11.18c.06,12.27.03,11.82,1.01,13.91,1.33,2.83,4.06,4.89,7.53,5.7,1.23.28,1.72.32,3.59.25,2.27-.08,3.39-.32,5.03-1.07,2.17-.99,3.98-2.72,4.94-4.72,1.06-2.19,1.06-2.23,1.06-14.39v-10.84h-5Z"/>
  <path d="M133.69,182.11c-2.39-2.29-4.52-4.43-4.73-4.74-.76-1.15-.39-2.49.85-3.13,1.44-.73,2.95-.49,4.25.68l.78.7,1.86-1.48c1.02-.81,1.89-1.51,1.93-1.55.04-.04-.44-.55-1.07-1.15-1.22-1.15-2.55-1.93-3.93-2.3-1-.27-3.11-.27-4.2,0-1.86.45-3.66,1.68-4.67,3.21-.87,1.32-1.17,2.43-1.09,4.07.14,2.73.68,3.53,5.53,8.19,4.93,4.73,5.47,5.3,5.81,6.05.81,1.78-.36,3.63-2.7,4.27-1.81.49-3.77-.13-5.29-1.69-.58-.6-.88-.81-1.01-.71-.1.08-.95.74-1.89,1.47-.94.73-1.71,1.37-1.71,1.43s.31.45.68.88c1.38,1.58,3.62,2.95,5.67,3.47,1.5.38,4.14.25,5.62-.28,1.94-.69,3.66-2.05,4.71-3.71,1.14-1.8,1.44-4.29.76-6.3-.63-1.86-1.48-2.88-6.17-7.38Z"/>
  <polygon points="141.36 168.93 141.36 171.13 141.36 173.32 145.68 173.32 150 173.32 150 186.66 150 200 152.5 200 155 200 155 186.66 155 173.32 159.24 173.32 163.49 173.32 163.49 171.13 163.49 168.93 152.42 168.93 141.36 168.93"/>
  <path d="M206.77,169.9c-2.34-.84-3.61-.98-8.99-.98h-4.74s0,15.53,0,15.53v15.54h4.84c5.31,0,6.58-.14,8.95-.99,5.86-2.1,9.24-7.42,9.24-14.55,0-4.95-1.49-8.76-4.58-11.69-1.39-1.32-2.81-2.18-4.73-2.87ZM210.7,188.1c-.72,2.66-2.36,4.72-4.64,5.81-1.6.77-2.95,1.04-5.78,1.18l-2.24.11v-21.3l2.69.07c2.39.06,2.82.11,3.9.47,3.6,1.19,5.68,3.73,6.3,7.68.22,1.44.09,4.76-.24,5.98Z"/>
</svg>