<?xml version="1.0" encoding="UTF-8"?>
<svg id="Layer_1" xmlns="http://www.w3.org/2000/svg" width="400" height="200" viewBox="0 0 400 200">
  <g>
    <path d="M68.97,43.58c-7.85-5.1-16.89-7.79-26.14-7.79-6.91,0-13.71,1.47-20.19,4.36-6.8,3.04-12.43,7.25-16.68,12.39-1.74,1.97-1.71,4.92,0,6.62,1.83,1.83,5.26,1.83,6.62,0,3.43-4.3,8.09-7.98,13.85-10.54,5.29-2.36,10.82-3.56,16.41-3.56,7.45,0,14.74,2.18,21.08,6.29,8.06,5.24,13.9,13.29,16.46,22.24.02.1.02.24.02.24,0,.48-.39.88-.87.89h-7.93c-.33,0-.63-.21-.76-.5-2.18-6.05-6.37-11.44-11.97-15.07-8.61-5.59-19.06-6.33-28.66-2.04-10.21,4.55-13.52,11.82-14.5,17.12-1.77,9.57,2.8,19.3,7.78,24.29l21.28,21.27h0s0,0,.01,0c1.75,1.75,4.58,1.75,6.33,0,1.75-1.75,1.75-4.59,0-6.34-.07-.07-.14-.13-.21-.2l-21.08-21.08c-3.4-3.41-6.42-10.29-5.3-16.32.86-4.63,3.99-8.19,9.33-10.57,6.78-3.03,14.12-2.52,20.13,1.38,5.67,3.67,9.28,9.84,9.56,16.25h0c0,.46.37.83.83.83h25.89c.45,0,.81-.37.82-.81-.28-15.63-8.7-30.66-22.11-39.36Z"/>
    <path d="M84.81,141.21c-1.82-1.83-5.2-1.78-6.6,0-3.43,4.42-7.76,7.58-13.54,10.16-5.3,2.36-10.82,3.56-16.41,3.56-7.45,0-14.74-2.18-21.09-6.29-8.06-5.24-13.9-13.28-16.45-22.23-.04-.11-.03-.26-.03-.26,0-.49.4-.9.89-.9h7.93c.31,0,.56.19.7.44,2.17,6.1,6.38,11.54,12.01,15.2,8.61,5.59,19.06,6.33,28.66,2.05,10.21-4.56,13.52-11.83,14.5-17.12,1.77-9.57-2.79-19.3-7.79-24.29l-22.36-22.36c-.05-.05-.1-.11-.16-.16-1.75-1.75-4.58-1.75-6.34,0-1.75,1.75-1.75,4.59,0,6.34h0s22.52,22.52,22.52,22.52c3.41,3.41,6.43,10.29,5.31,16.33-.86,4.63-4,8.18-9.35,10.57-6.78,3.03-14.12,2.52-20.13-1.38-5.66-3.68-9.27-9.84-9.56-16.25h0c0-.45-.35-.81-.79-.83l-25.93-.02c-.42,0-.76.32-.8.73.26,15.67,8.68,30.72,22.11,39.44,7.86,5.1,16.89,7.79,26.14,7.79,6.91,0,13.7-1.47,20.19-4.36,6.84-3.05,12.48-7.29,16.75-12.47h0c1.43-1.83,1.3-4.48-.38-6.17Z"/>
  </g>
  <g>
    <g>
      <path d="M115.81,116.46l4.88-5.85c3.38,2.79,6.92,4.56,11.21,4.56,3.38,0,5.42-1.34,5.42-3.54v-.11c0-2.09-1.29-3.16-7.56-4.77-7.56-1.93-12.44-4.02-12.44-11.48v-.11c0-6.81,5.47-11.31,13.14-11.31,5.47,0,10.14,1.72,13.94,4.77l-4.29,6.22c-3.33-2.31-6.6-3.7-9.76-3.7s-4.83,1.45-4.83,3.27v.11c0,2.47,1.61,3.27,8.1,4.93,7.62,1.98,11.9,4.72,11.9,11.26v.11c0,7.45-5.68,11.64-13.78,11.64-5.68,0-11.42-1.98-15.93-6.01Z"/>
      <path d="M151.59,103.27v-.11c0-10.67,8.04-19.41,19.57-19.41,7.08,0,11.31,2.36,14.8,5.79l-5.25,6.06c-2.9-2.63-5.85-4.24-9.6-4.24-6.33,0-10.89,5.25-10.89,11.69v.11c0,6.43,4.45,11.8,10.89,11.8,4.29,0,6.92-1.72,9.87-4.4l5.26,5.31c-3.86,4.13-8.15,6.7-15.39,6.7-11.05,0-19.25-8.53-19.25-19.3Z"/>
      <path d="M205.44,84.12h7.62l16.09,37.81h-8.63l-3.43-8.42h-15.87l-3.43,8.42h-8.42l16.09-37.81ZM214.13,106.22l-4.99-12.17-4.99,12.17h9.97Z"/>
      <path d="M236.31,84.39h7.61l17.59,23.11v-23.11h8.15v37.54h-7.03l-18.18-23.86v23.86h-8.15v-37.54Z"/>
      <path d="M281.71,84.39h17.43c4.29,0,7.67,1.18,9.81,3.32,1.72,1.72,2.57,3.81,2.57,6.38v.11c0,4.24-2.25,6.6-4.93,8.1,4.34,1.66,7.02,4.18,7.02,9.22v.11c0,6.86-5.58,10.3-14.05,10.3h-17.86v-37.54ZM297.37,99.57c3.65,0,5.95-1.18,5.95-3.97v-.11c0-2.47-1.93-3.86-5.42-3.86h-8.15v7.94h7.61ZM299.57,114.69c3.65,0,5.85-1.29,5.85-4.08v-.11c0-2.52-1.88-4.08-6.11-4.08h-9.54v8.26h9.81Z"/>
      <path d="M320.53,103.27v-.11c0-10.67,8.42-19.41,20-19.41s19.9,8.63,19.9,19.31v.11c0,10.67-8.42,19.41-20,19.41s-19.89-8.63-19.89-19.3ZM351.79,103.27v-.11c0-6.43-4.72-11.8-11.37-11.8s-11.26,5.25-11.26,11.69v.11c0,6.43,4.72,11.8,11.37,11.8s11.26-5.26,11.26-11.69Z"/>
      <path d="M376.48,102.84l-12.55-18.45h9.65l7.88,12.17,7.94-12.17h9.38l-12.55,18.34,13.09,19.2h-9.65l-8.42-12.87-8.47,12.87h-9.38l13.08-19.09Z"/>
    </g>
    <g>
      <path d="M117.11,133.36h8.62v.83h-7.72v4.76h6.94v.83h-6.94v4.86h7.81v.83h-8.71v-12.12Z"/>
      <path d="M128.44,133.36h.85l8.36,10.54v-10.54h.87v12.12h-.68l-8.54-10.77v10.77h-.87v-12.12Z"/>
      <path d="M145.29,134.19h-4.22v-.83h9.35v.83h-4.22v11.29h-.9v-11.29Z"/>
      <path d="M152.96,133.36h8.62v.83h-7.72v4.76h6.94v.83h-6.94v4.86h7.81v.83h-8.71v-12.12Z"/>
      <path d="M164.3,133.36h5.09c1.49,0,2.68.47,3.41,1.19.57.57.92,1.38.92,2.25v.04c0,2.03-1.51,3.19-3.55,3.46l4,5.18h-1.14l-3.86-5.02h-3.96v5.02h-.9v-12.12ZM169.28,139.64c2.03,0,3.53-1.02,3.53-2.77v-.03c0-1.63-1.28-2.65-3.48-2.65h-4.14v5.45h4.09Z"/>
      <path d="M179.74,134.19h-4.22v-.83h9.35v.83h-4.22v11.29h-.9v-11.29Z"/>
      <path d="M190.38,133.27h.87l5.64,12.21h-.99l-1.54-3.39h-7.15l-1.54,3.39h-.94l5.64-12.21ZM193.99,141.27l-3.19-7.01-3.2,7.01h6.39Z"/>
      <path d="M199.42,133.36h.9v12.12h-.9v-12.12Z"/>
      <path d="M204.07,133.36h.85l8.36,10.54v-10.54h.87v12.12h-.67l-8.54-10.77v10.77h-.87v-12.12Z"/>
      <path d="M217.86,133.36h.85l4.87,7.17,4.86-7.17h.85v12.12h-.9v-10.53l-4.8,6.98h-.07l-4.8-6.98v10.53h-.87v-12.12Z"/>
      <path d="M233.01,133.36h8.62v.83h-7.72v4.76h6.94v.83h-6.94v4.86h7.81v.83h-8.71v-12.12Z"/>
      <path d="M244.34,133.36h.85l8.36,10.54v-10.54h.87v12.12h-.67l-8.54-10.77v10.77h-.87v-12.12Z"/>
      <path d="M261.19,134.19h-4.22v-.83h9.35v.83h-4.22v11.29h-.9v-11.29Z"/>
    </g>
  </g>
</svg>