<?xml version="1.0" encoding="UTF-8"?>
<svg id="Layer_1" xmlns="http://www.w3.org/2000/svg" width="400" height="200" viewBox="0 0 400 200">
  <defs>
    <style>
      .cls-1 {
        fill-rule: evenodd;
      }
    </style>
  </defs>
  <path class="cls-1" d="M195.47.03c-11.27.96-20.44,3.52-29.78,8.3-15.09,7.73-26.95,19.88-34.34,35.17-3.87,8.01-6.16,16.07-7.23,25.47-.38,3.32-.37,12.23,0,15.69,2.34,21.29,12.68,39.9,29.46,53,1.95,1.52,6.64,4.68,8.76,5.89,26.21,15.03,58.81,13.36,83.29-4.26,5.79-4.17,11.46-9.65,15.99-15.45,6.91-8.85,12.12-20.1,14.39-31.08,1.11-5.36,1.46-8.66,1.55-14.62.12-7.76-.49-13.28-2.26-20.23-3.42-13.5-10.29-25.56-20.2-35.47-12.38-12.38-27.82-19.86-45.55-22.07-2.01-.25-3.57-.32-7.96-.36-3-.02-5.76-.02-6.14.01M198.5,5.94c-14.44.49-28.27,5.27-39.76,13.73-3.02,2.22-5.27,4.19-8.29,7.22-5.53,5.56-9.54,11.07-12.96,17.83-4.05,8-6.27,15.55-7.38,25.16-.23,1.96-.25,12.55-.03,13.06.13.3.73-.22,6.85-5.86,4.55-4.2,6.88-6.24,7.23-6.36.61-.2,1.07-.1,1.56.35.42.38.46,1.4.09,2.12-.14.27-1.29,1.88-2.56,3.59-4.29,5.78-6.68,9.69-7.68,12.58-.46,1.32-.5,1.59-.5,3.33,0,1.82.02,1.94.48,2.91,1.21,2.55,3.76,3.8,7.7,3.78,2.42-.01,4.15-.42,6.21-1.44,4.02-2,6.63-4.65,10.73-10.89,2.25-3.42,3.54-5.61,12.92-21.8,9.88-17.07,9.13-15.81,11.1-18.61,4.7-6.69,10.7-13.35,15.5-17.19,5.81-4.65,7.58-5.93,11.16-8.08,4.22-2.54,9.59-4.99,13.32-6.1,2.27-.67,4.26-.98,7.12-1.08l2.57-.09-2.57-1.23c-7.86-3.78-16.21-6.03-24.85-6.71-2.29-.18-6.11-.29-7.96-.22M229.27,18.44c-2.93.62-5.68,1.89-9.62,4.48-5.08,3.34-9.4,7.15-13.03,11.49-2.21,2.65-4.53,5.72-5.77,7.64-1.6,2.47-8.27,13.65-8.27,13.85,0,.02,17.06.01,37.91,0l37.91-.04-.09-.44c-.14-.71-1.44-4.19-2.39-6.43-3.3-7.72-7.73-14.41-13.93-21.04-.9-.97-2.05-2.11-2.54-2.53l-.9-.78-7.43,5.9c-4.09,3.24-7.64,6-7.9,6.13-.84.44-1.57.29-1.92-.38-.49-.95-.21-1.55,1.68-3.57,2.59-2.77,4.35-5.58,4.86-7.73.37-1.57.24-3.54-.29-4.57-.5-.97-1.57-1.73-2.9-2.08-1.25-.32-3.61-.28-5.38.09M190.56,59.41c-1.25,2.12-3.28,5.43-6.65,10.85-2.62,4.22-6.03,8.9-11.27,15.48-9.15,11.49-18.56,17.32-28.73,17.81-4,.19-7.19-.66-9.2-2.47-.96-.86-.97-.96.33,2.29,2.76,6.86,6.74,13.46,11.61,19.25,1.53,1.81,5.34,5.7,7.17,7.31,6.68,5.87,14,10.26,22.18,13.3,5.64,2.1,10.9,3.33,17.47,4.09l.8.09V60.51l-.97-.93c-.75-.72-1.01-1.08-1.14-1.61-.1-.37-.19-.72-.2-.76-.02-.05-.64.94-1.38,2.2M206.94,60.96c-.06.06-.1,4.25-.1,9.32,0,7.82.03,9.22.21,9.22.12,0,.68-.21,1.24-.46,2.83-1.27,7.32-2.63,10.22-3.1,1.64-.26,5.02-.3,6.59-.07,1.74.25,4.41.89,6.74,1.61,2.17.67,3.43,1.15,9.85,3.76,4.19,1.7,7.61,2.84,10.08,3.36,1.7.36,2.33.42,4.62.42,2.26,0,2.87-.04,4.17-.35,2.13-.5,2.48-.54,2.89-.32.52.28.73.97.45,1.51-.52,1-2.59,2.26-5.08,3.09-2.67.89-4.01,1.07-7.88,1.07-3.2,0-3.52-.03-5.23-.43-2.34-.55-5.82-1.68-9.17-2.97-6.58-2.54-13.91-4.68-17.23-5.03-1.97-.21-4.24,0-6.22.56-1.72.49-4.12,1.68-5.27,2.61l-.91.73-.04,30.95c-.03,25.09,0,30.95.16,30.95.11,0,1.04-.1,2.08-.23,15.99-1.95,30.42-8.97,41.75-20.3,11.99-11.99,19.13-27.43,20.54-44.41.22-2.7.22-8.68,0-11.14-.22-2.45-.83-6.59-1.27-8.71l-.35-1.67-31.38-.04c-17.26-.02-31.42,0-31.48.06M129.43,169.15c-1.86.45-3.66,1.68-4.67,3.21-.87,1.31-1.17,2.43-1.09,4.07.14,2.73.68,3.53,5.53,8.19,4.93,4.73,5.47,5.3,5.81,6.05.81,1.78-.36,3.63-2.7,4.27-1.81.49-3.77-.13-5.29-1.69-.58-.6-.88-.81-1.01-.71-.1.08-.95.74-1.89,1.47-.94.73-1.71,1.37-1.71,1.43s.31.45.68.88c1.38,1.58,3.62,2.95,5.67,3.47,1.5.38,4.14.25,5.62-.28,1.94-.69,3.66-2.05,4.71-3.71,1.14-1.8,1.44-4.29.76-6.3-.63-1.86-1.48-2.88-6.17-7.38-2.39-2.29-4.52-4.43-4.73-4.74-.76-1.15-.39-2.49.85-3.13,1.44-.73,2.95-.49,4.25.68l.78.7,1.86-1.48c1.02-.81,1.89-1.51,1.93-1.55.04-.04-.44-.55-1.07-1.15-1.22-1.15-2.55-1.93-3.93-2.3-1-.27-3.11-.27-4.2,0M141.36,171.13v2.2h8.64v26.68h5v-26.68h8.49v-4.4h-22.13v2.2M166.56,180.11c.06,12.27.03,11.82,1.01,13.91,1.33,2.83,4.06,4.89,7.53,5.7,1.23.28,1.72.32,3.59.25,2.27-.08,3.39-.32,5.03-1.07,2.17-.99,3.98-2.72,4.94-4.72,1.06-2.19,1.06-2.23,1.06-14.39v-10.84h-5v10.73c0,11.77.02,11.54-.91,12.95-1.14,1.72-3.85,2.67-6.73,2.36-2.4-.26-4.03-1.28-4.94-3.08l-.53-1.06-.04-10.95-.04-10.95h-5.01l.06,11.18M193.04,184.46v15.54h4.84c5.31,0,6.58-.14,8.95-.99,5.86-2.1,9.24-7.42,9.24-14.55,0-4.95-1.49-8.76-4.58-11.69-1.39-1.32-2.81-2.18-4.73-2.87-2.34-.84-3.61-.98-8.99-.98h-4.74s0,15.53,0,15.53M219.57,184.46v15.54h5v-31.07h-5v15.54M240.18,169.22c-3.08.68-5.66,2.07-7.77,4.18-2.45,2.46-3.92,5.34-4.44,8.72-.28,1.81-.28,2.88,0,4.71.47,3.11,1.84,5.91,4.05,8.25,2.08,2.2,4.24,3.53,7.17,4.42,1.26.38,1.56.41,4.09.42,3.23,0,4.35-.23,6.82-1.42,5.21-2.53,8.52-7.51,8.81-13.27.38-7.41-4.42-13.9-11.73-15.86-1.71-.46-5.25-.53-7.01-.14M266.74,169.15c-3.35.81-5.81,3.72-5.8,6.86,0,1.32.2,2.15.8,3.38.52,1.07,1.59,2.2,7.27,7.68,3.11,3,3.59,3.64,3.6,4.74.01,1.85-2.44,3.56-4.71,3.29-1.19-.14-2.61-.88-3.56-1.85-.58-.6-.88-.81-1.01-.71-.1.08-.95.74-1.89,1.47-.94.73-1.71,1.37-1.71,1.43s.31.45.68.88c1.39,1.58,3.62,2.95,5.68,3.47.74.19,1.43.23,2.8.18,1.59-.06,1.98-.13,3.04-.55,4.39-1.73,6.63-6.09,5.17-10.11-.73-2.01-.94-2.26-6.81-7.89-2.07-1.99-3.9-3.84-4.08-4.13-.68-1.1-.28-2.44.92-3.04,1.44-.73,2.95-.49,4.25.68l.78.7,1.86-1.48c1.02-.81,1.89-1.51,1.93-1.55.04-.04-.44-.55-1.07-1.15-1.22-1.15-2.55-1.93-3.93-2.3-1-.27-3.11-.27-4.2,0M198.04,184.55v10.65l2.24-.11c2.83-.13,4.18-.41,5.78-1.18,2.28-1.09,3.92-3.15,4.64-5.81.33-1.23.47-4.55.24-5.98-.62-3.95-2.7-6.49-6.3-7.68-1.08-.36-1.51-.41-3.9-.47l-2.69-.07v10.65M240.48,174.29c-3.53,1.06-6.09,3.54-7.23,6.99-.35,1.06-.4,1.46-.4,3.18s.05,2.12.4,3.18c.58,1.73,1.38,3.01,2.71,4.35.93.93,1.45,1.3,2.58,1.86,1.83.9,2.88,1.16,4.74,1.16,1.7,0,2.56-.15,4.01-.73,1.42-.56,2.52-1.3,3.64-2.46,1.18-1.21,1.99-2.54,2.53-4.18.35-1.06.4-1.45.4-3.18s-.05-2.12-.4-3.18c-1.16-3.5-3.85-6.06-7.41-7.04-1.58-.44-4.04-.41-5.58.05"/>
</svg>