<?xml version="1.0" encoding="UTF-8"?>
<svg id="Layer_1" xmlns="http://www.w3.org/2000/svg" width="400" height="200" viewBox="0 0 400 200">
  <path d="M277.84,35.55h0c-.21-.83-.42-1.14-.83-1.25l-15.02-4.02-2.09-8.56c-.11-.42-.21-.72-.63-.83l-15.44-4.17-1.88-8.14c-.02-.49-.36-.91-.83-1.03L200.99.09c-.66-.12-1.33-.12-1.99,0l-40.11,7.45c-.47.13-.82.54-.85,1.03l-1.88,8.14-15.44,4.17c-.42.11-.52.42-.62.83l-2.09,8.56-15.02,4.02c-.42.11-.63.42-.83,1.25-1.27,6.67-1.9,13.45-1.88,20.24,0,60.1,31.3,112.27,78.05,143.37.48.4,1.05.69,1.66.85.61-.15,1.19-.44,1.68-.85,46.74-31.1,78.05-83.27,78.05-143.37.01-6.79-.62-13.57-1.88-20.24ZM193.33,171.78c-11.48-13.15-19.2-29.2-24.41-46.74l-7.93,4.95c-2.09,1.45-3.76.83-5-1.46-10.64-18.78-17.53-49.64-18.15-71.35-.03-1,.35-1.96,1.03-2.68,2.84-3.4,5.89-6.61,9.15-9.62.62-.63,1.25-.21,1.25.83,0,26.71,4.59,51.54,11.9,67.81.62,1.25,1.25,1.25,2.08.63l2.29-1.46c-4.37-19.41-6.88-45.28-6.25-75.12,0-1.05.2-1.46.83-1.88,3.2-1.99,6.54-3.74,10.01-5.22,1.05-.42,1.26-.21,1.26.62-.63,43.4,2.91,73.45,10.64,97.45.2.62.83.42.83-.21-.42-8.76-.42-16.49-.42-25.86l-.42-74.91c0-.83.2-1.25,1.05-1.46,3.43-.85,6.91-1.47,10.42-1.88.31-.04.59.18.63.49,0,.05,0,.1,0,.14l.04,146.75c0,.42-.42.62-.83.2ZM206.67,171.72v.05c-.42.42-.83.21-.83-.2V24.84c0-.06,0-.12,0-.18.05-.3.33-.5.63-.45h0c27.96,1.88,45.89,13.56,45.89,30.46,0,7.01-2.6,13.77-7.3,18.97,9.18,2.51,12.73,9.39,12.73,18.57,0,16.31-11.86,43.21-51.12,79.51Z"/>
  <path d="M240.06,54.05c0-8.34-9.6-15.23-22.34-16.1v43.6c16.14-9.35,22.34-18.74,22.34-27.5Z"/>
  <path d="M238.39,85.34c-4.39,0-8.34,1.68-20.66,10.44v47.15c21.29-23.78,27.34-40.06,27.34-48.4,0-5.85-2.71-9.19-6.68-9.19Z"/>
</svg>