<?xml version="1.0" encoding="UTF-8"?>
<svg id="Layer_1" xmlns="http://www.w3.org/2000/svg" width="400" height="200" viewBox="0 0 400 200">
  <path d="M108.68,37.08c1.14.4,1.74.65,2.35.83,2.12.64,4.27,1.2,6.37,1.92.5.17,1.13.82,1.14,1.27.01.47-.55,1.24-1.02,1.4-5.15,1.72-10.34,2.23-15.33-.48-2.01-1.09-2.83-3.22-1.66-5.18,2.01-3.37,4.25-6.67,6.87-9.57,1.15-1.28,3.45-1.58,5.28-2.18,12.5-4.05,25.36-5.47,38.43-5.01,22.8.8,44.63,6.2,65.75,14.57,20.6,8.16,39.39,19.37,55.8,34.34,9.59,8.75,17.48,18.79,23,30.66,10.13,21.79,1.8,46.6-17.59,59.05-10.35,6.65-21.74,10.42-33.74,12.55-15.96,2.84-31.81,2.11-47.56-1.63-.47-.11-.95-.21-1.43-.29-.12-.02-.26.06-.51.12-.31,1.92-.44,3.96-1.04,5.85-.36,1.13-1.25,2.38-2.26,2.98-5.95,3.55-11.32,1.5-13.37-5.1-.8-2.56-1.23-5.26-1.66-7.92-.28-1.74-.79-2.88-2.61-3.75-16.24-7.73-30.35-18.2-41.34-32.64-3.99-5.24-3.61-11.67,1.71-16.14,3.15-2.65,6.79-4.87,10.5-6.69,9.33-4.58,19.27-7.44,29.48-9.3,2.07-.38,3.02-.85,3.25-3.38.8-8.69,2.06-17.35,3.22-26.01.17-1.28.71-2.54,1.2-3.76,1.3-3.19,2.9-3.48,5.16-.94,2.87,3.22,5.05,6.82,5.49,11.22.6,6.01,1.2,12.01,1.68,18.03.22,2.72.08,2.71,2.88,2.63,13.94-.38,27.57,1.49,40.82,5.86,4.73,1.56,8.98,4.09,12.44,7.76,3.98,4.21,5.3,9.1,3.2,14.59-2.13,5.58-6.35,9.27-12.2,9.73-3.22.25-6.63-1.53-9.9-2.57-1.02-.32-.99-1.36-.09-1.96,1.15-.76,2.42-1.33,3.63-2.02,1.44-.83,3-1.52,4.24-2.58,1.87-1.6,1.87-3.53-.15-4.9-1.92-1.3-4.08-2.57-6.31-3.05-6.9-1.48-13.86-2.84-20.86-3.75-5.36-.7-10.82-.59-16.23-.94-1.77-.11-2.28.54-2.24,2.25.31,13.49.56,26.98.81,40.47.02,1.16.21,1.93,1.62,2.16,8.52,1.39,17.09,2.51,25.72,2.01,15.55-.91,30.62-3.82,43.95-12.52,7.7-5.02,13.01-11.86,14.67-21.13,1.39-7.74-.11-15.06-3.41-22.07-3.94-8.37-9.74-15.36-16.43-21.63-15.48-14.49-33.61-24.77-53-33-15.86-6.73-32.35-11.31-49.41-13.64-14.24-1.95-28.52-2.39-42.7.73-1.49.33-2.95.77-4.39,1.28-.65.23-1.2.75-2.27,1.45ZM175.5,151.05c1.18-13.63,1.75-26.55,1.35-39.78-5.04.53-9.81.93-14.55,1.56-7.91,1.06-15.76,2.49-23.2,5.53-4.72,1.93-5.3,4.95-1.76,8.61,6.42,6.66,13.73,12.17,21.92,16.45,5.14,2.68,10.5,4.95,16.24,7.63Z"/>
</svg>